PathFileType	4	(X/Y/Z)	..\data\2014004\dynamic\2014004_C5_01.trc
DataRate	CameraRate	NumFrames	NumMarkers	Units	OrigDataRate	OrigDataStartFrame	OrigNumFrames
100.000000	100.000000	4	52	mm	100.000000	89	143
Frame#	Time	L_IAS			L_IPS			R_IPS			R_IAS			L_FTC			L_FLE			L_FME			L_FAX			L_TTC			L_FAL			L_TAM			L_FCC			L_FM1			L_FM2			L_FM5			R_FTC			R_FLE			R_FME			R_FAX			R_TTC			R_FAL			R_TAM			R_FCC			R_FM1			R_FM2			R_FM5			CV7			TV10			SXS			SJN			L_SIA			L_SRS			L_SAA			L_SAE			L_HLE			L_HME			L_UOA			L_RSP			L_UHE			L_HM2			L_HM5			R_SIA			R_SRS			R_SAA			R_SAE			R_HLE			R_HME			R_UOA			R_RSP			R_UHE			R_HM2			R_HM5			
		X1	Y1	Z1	X2	Y2	Z2	X3	Y3	Z3	X4	Y4	Z4	X5	Y5	Z5	X6	Y6	Z6	X7	Y7	Z7	X8	Y8	Z8	X9	Y9	Z9	X10	Y10	Z10	X11	Y11	Z11	X12	Y12	Z12	X13	Y13	Z13	X14	Y14	Z14	X15	Y15	Z15	X16	Y16	Z16	X17	Y17	Z17	X18	Y18	Z18	X19	Y19	Z19	X20	Y20	Z20	X21	Y21	Z21	X22	Y22	Z22	X23	Y23	Z23	X24	Y24	Z24	X25	Y25	Z25	X26	Y26	Z26	X27	Y27	Z27	X28	Y28	Z28	X29	Y29	Z29	X30	Y30	Z30	X31	Y31	Z31	X32	Y32	Z32	X33	Y33	Z33	X34	Y34	Z34	X35	Y35	Z35	X36	Y36	Z36	X37	Y37	Z37	X38	Y38	Z38	X39	Y39	Z39	X40	Y40	Z40	X41	Y41	Z41	X42	Y42	Z42	X43	Y43	Z43	X44	Y44	Z44	X45	Y45	Z45	X46	Y46	Z46	X47	Y47	Z47	X48	Y48	Z48	X49	Y49	Z49	X50	Y50	Z50	X51	Y51	Z51	X52	Y52	Z52	

90	0.89	1252.377563476563	925.354675292969	-343.0522460937501	1060.683715820313	959.3555297851565	-247.7877197265626	1068.257568359375	953.293395996094	-158.3453826904297	1271.576904296875	938.4843750000002	-108.9197387695313	1143.278442382813	873.6875000000002	-398.023406982422	1023.121887207031	484.7134399414064	-344.0985412597657	1050.018676757813	485.1806640625001	-222.3666992187501	984.1753540039065	433.2085266113282	-347.5083007812501	1045.951538085938	393.7537231445314	-286.4557189941407	837.948181152344	95.64927673339845	-300.9302062988282	871.431335449219	112.5476455688477	-208.045394897461	784.6103515625002	77.13591766357423	-243.4372863769532	988.0845947265627	26.32576179504395	-223.8942413330079	984.961120605469	41.30397033691407	-279.5417785644532	944.130554199219	20.12516021728516	-329.1185607910157	1230.621459960938	864.2777099609377	-37.52456283569337	1358.1416015625	477.7486572265626	-78.4828338623047	1377.522094726563	486.1362915039064	-204.6983642578126	1369.435302734375	426.8331909179689	-77.5283889770508	1435.90673828125	444.0477600097657	-124.3431243896485	1503.185668945313	81.67807769775392	-114.8044891357422	1503.963012695313	116.2336349487305	-207.3569335937501	1473.82568359375	24.29425811767579	-176.6129760742188	1650.359008789063	115.5996780395508	-196.4089050292969	1636.798828125	122.3314819335938	-145.4203643798828	1624.536743164063	93.27488708496095	-99.69449615478518	1120.854248046875	1443.697998046875	-236.4900054931641	1039.343383789063	1220.60205078125	-230.3238830566407	1292.0712890625	1171.979370117188	-233.019515991211	1246.006103515625	1360.056762695313	-230.6430969238282	1046.465209960938	1249.272216796875	-355.7918090820313	1072.734252929688	1389.058349609375	-317.1780395507813	1115.514526367188	1394.847290039063	-399.8769531250001	1186.907104492188	1402.535522460938	-422.0984191894532	1189.561767578125	1085.873046875	-513.6535034179689	1161.117309570313	1070.547241210938	-433.724334716797	1158.310424804688	1050.900024414063	-485.0134277343751	1420.905517578125	948.7171020507815	-468.9698181152345	1365.041625976563	906.7592773437502	-503.1722717285157	1490.791625976563	906.3199462890627	-481.7069396972657	1417.629150390625	831.244812011719	-490.490692138672	1035.96923828125	1246.21484375	-119.7613296508789	1074.0517578125	1387.1279296875	-149.049301147461	1129.449951171875	1402.369506835938	-69.44305419921876	1189.83251953125	1400.943359375	-47.95629501342774	1031.78955078125	1123.952880859375	45.25158309936524	1006.403015136719	1119.215454101563	-43.1238136291504	988.4942016601565	1123.128540039063	6.446831703186037	1030.778076171875	851.633728027344	43.28349304199219	972.646179199219	883.4597778320315	88.01970672607423	1003.991027832031	758.2298583984376	55.39902496337892	918.8110351562502	817.9602050781252	84.40378570556642	
91	0.9	1270.407836914063	923.9699707031252	-343.1970825195313	1078.848876953125	958.1920166015627	-247.6323394775391	1086.218383789063	951.9299316406252	-158.0846710205078	1289.725708007813	937.0162353515627	-108.8922195434571	1160.717529296875	872.897155761719	-398.1507263183595	1037.167236328125	485.0972595214845	-345.5198364257813	1064.48193359375	484.8113708496095	-223.4469757080079	997.1042480468752	434.3220520019532	-348.9691467285157	1058.32568359375	393.2044982910157	-288.1642456054688	840.9290161132815	100.9122467041016	-303.2775268554688	874.6142578125002	116.915397644043	-210.4027404785157	786.9209594726565	84.89891815185548	-245.8752746582032	987.1766357421877	26.28575134277344	-224.0661621093751	984.962097167969	40.86651611328126	-279.6315002441407	943.7705688476565	19.72893333435059	-329.1473999023438	1248.83203125	862.8737792968752	-37.61019897460938	1375.926391601563	476.6215209960939	-79.11042785644533	1394.560302734375	485.2027587890626	-205.3836059570313	1387.210815429688	425.5679321289064	-78.10691833496095	1453.348999023438	443.0371398925782	-125.4076156616211	1520.158325195313	80.86294555664064	-115.4394149780274	1520.69140625	115.0480880737305	-208.1228637695313	1489.939086914063	23.8039722442627	-176.9655151367188	1667.33447265625	113.552490234375	-197.6066436767579	1653.82275390625	120.3205184936524	-146.6598663330078	1641.348999023438	91.19415283203126	-100.9209823608399	1137.41015625	1442.178588867188	-234.7610473632813	1056.834228515625	1218.735229492188	-229.5812225341797	1309.49462890625	1170.989379882813	-231.7454528808594	1262.865600585938	1358.873779296875	-228.9206695556641	1063.701049804688	1247.840454101563	-354.7646179199219	1089.501098632813	1387.707641601563	-315.6954345703126	1132.609375	1393.681030273438	-398.3262939453126	1203.862426757813	1401.757202148438	-420.3503723144532	1206.9287109375	1085.776000976563	-513.6342163085939	1177.998901367188	1069.704711914063	-433.9658508300782	1175.647705078125	1050.309448242188	-485.3830566406251	1439.862060546875	952.2086181640627	-468.4051513671876	1384.897705078125	909.3513183593752	-502.924285888672	1510.556396484375	911.278991699219	-480.9449768066407	1439.150756835938	834.7783813476565	-490.4411621093751	1052.80615234375	1244.199096679688	-119.0290756225586	1090.503540039063	1385.198364257813	-147.6983947753907	1145.397094726563	1400.32275390625	-67.96616363525392	1205.991577148438	1399.17236328125	-46.27494430541993	1048.103149414063	1121.625244140625	45.86004257202149	1023.226440429688	1116.767822265625	-42.65242004394532	1005.177917480469	1120.576171875	6.786173820495607	1048.0068359375	849.3355102539065	44.13766479492188	989.377136230469	881.0014648437502	88.2982864379883	1021.77880859375	755.8468627929689	56.57981872558595	935.9155883789065	815.1748657226565	84.5206756591797	
92	0.91	1288.647216796875	922.812438964844	-343.2925415039063	1097.234985351563	957.3359375000002	-247.5135803222657	1104.411010742188	950.8660888671877	-157.7980194091797	1308.117797851563	935.858337402344	-108.8948135375977	1178.467895507813	872.2377929687502	-398.2687377929689	1052.418212890625	485.178192138672	-347.1514587402344	1080.195190429688	484.0859985351564	-224.6917266845704	1011.235534667969	435.183807373047	-350.6560974121094	1071.89013671875	392.3180236816407	-290.1890869140626	844.5745849609377	106.786117553711	-305.6937255859376	878.6275634765627	121.6472091674805	-212.9192504882813	790.192321777344	93.56455230712892	-248.3117828369141	986.0422973632815	26.32001113891602	-224.2338562011719	984.7495727539065	40.36717605590821	-279.6835632324219	943.3296508789065	19.58367919921875	-329.1417846679688	1267.400634765625	861.8334960937502	-37.72372817993165	1393.922729492188	475.7669372558595	-79.56963348388673	1412.294799804688	484.7135620117189	-205.7265319824219	1404.917602539063	424.4596252441407	-78.5420608520508	1470.82666015625	441.8250732421876	-126.2628173828125	1533.968627929688	79.39015197753908	-116.2150497436524	1534.496337890625	113.1643447875977	-209.0438079833985	1502.197631835938	23.24810218811036	-177.4055786132813	1681.278564453125	109.1460952758789	-198.9022216796876	1667.844970703125	116.1325225830078	-147.9453430175782	1654.830444335938	87.1272430419922	-102.1789474487305	1154.100708007813	1440.863525390625	-232.8481445312501	1074.496826171875	1217.05029296875	-228.7362060546876	1327.07763671875	1170.295654296875	-230.3490905761719	1279.84716796875	1357.944091796875	-227.0526885986329	1081.084228515625	1246.627319335938	-353.6064453125001	1106.37646484375	1386.576049804688	-314.0257263183594	1149.795776367188	1392.754028320313	-396.582244873047	1220.898681640625	1401.231689453125	-418.4360961914064	1224.101928710938	1085.968505859375	-513.5305786132814	1194.605346679688	1069.19677734375	-434.1233215332032	1192.667846679688	1050.078369140625	-485.6872863769532	1458.105834960938	955.1674804687502	-467.7583923339845	1403.92041015625	911.6617431640627	-502.6666870117189	1529.444458007813	915.4573974609377	-480.092254638672	1459.494140625	837.8392333984377	-490.4043579101564	1069.852661132813	1242.317993164063	-118.1267623901367	1107.097900390625	1383.41455078125	-146.183334350586	1161.468627929688	1398.41943359375	-66.32814025878908	1222.299438476563	1397.587280273438	-44.44843673706055	1064.831787109375	1119.265747070313	46.54803466796876	1040.427001953125	1114.323974609375	-42.09147644042969	1022.263122558594	1117.971557617188	7.229275226593019	1066.072631835938	847.0178833007815	44.93524932861329	1006.877685546875	878.3946533203127	88.5037307739258	1040.610595703125	753.4383544921876	57.76250076293947	953.9322509765627	812.1389770507815	84.53909301757814	
93	0.92	1307.050659179688	921.8711547851565	-343.3072509765626	1115.783813476563	956.7552490234377	-247.4463195800782	1122.780029296875	950.0913085937502	-157.5018615722657	1326.706420898438	935.0222167968752	-108.90771484375	1196.52294921875	871.659851074219	-398.3636779785157	1068.996826171875	484.8655090332032	-348.9827575683594	1097.3193359375	482.9070739746095	-226.1287994384766	1026.703247070313	435.7127380371095	-352.5597229003907	1086.761596679688	391.0272521972657	-292.5405578613282	849.0796508789065	113.2818145751953	-308.1002807617188	883.6701660156252	126.7342987060547	-215.5276489257813	794.6706542968752	103.1445541381836	-250.6486968994141	984.7918090820315	26.50431632995606	-224.4119720458985	984.4028320312502	39.87443542480469	-279.7189331054688	942.9194335937502	19.82984161376953	-329.1015625000001	1286.262329101563	861.1601562500002	-37.83830642700196	1412.035034179688	475.1593017578126	-79.8810501098633	1430.571411132813	484.6226501464845	-205.7689361572266	1422.521606445313	423.5179138183595	-78.84968566894533	1488.290283203125	440.4524536132814	-126.9483947753907	1545.038940429688	77.3687210083008	-117.0868530273438	1545.749267578125	110.6890869140625	-210.0813140869141	1511.092041015625	22.68168449401856	-177.8738555908203	1692.567993164063	102.6309661865235	-200.2842864990235	1679.2763671875	110.02783203125	-149.2430419921875	1665.419189453125	81.35207366943361	-103.4059295654297	1170.93505859375	1439.76953125	-230.7584381103516	1092.305786132813	1215.577270507813	-227.7950439453126	1344.789184570313	1169.884887695313	-228.8610534667969	1296.95166015625	1357.2626953125	-225.0617675781251	1098.587158203125	1245.659790039063	-352.3312377929688	1123.359497070313	1385.687744140625	-312.1814270019532	1167.058837890625	1392.089721679688	-394.6583862304689	1238.01708984375	1400.965698242188	-416.3731384277345	1241.053833007813	1086.450805664063	-513.3446044921876	1210.952758789063	1069.031860351563	-434.1814270019532	1209.35888671875	1050.21142578125	-485.9146423339845	1475.655151367188	957.5437622070315	-467.0455017089845	1422.105224609375	913.640563964844	-502.4051513671876	1547.474487304688	918.772888183594	-479.174285888672	1478.63330078125	840.3560180664065	-490.3841552734376	1087.11572265625	1240.58203125	-117.0500030517578	1123.854736328125	1381.796997070313	-144.5056304931641	1177.70361328125	1396.671020507813	-64.53127288818361	1238.780883789063	1396.182250976563	-42.4851417541504	1081.986328125	1116.884033203125	47.3083610534668	1058.023559570313	1111.891845703125	-41.44334411621094	1039.74853515625	1115.335815429688	7.776443958282472	1084.956909179688	844.7002563476565	45.65883255004884	1025.142822265625	875.6568603515627	88.62983703613283	1060.45654296875	751.0324707031251	58.91831970214845	972.8504028320315	808.8754882812502	84.44286346435548	
